<svg width="500" height="500" viewBox="0 0 500 500" fill="none" xmlns="http://www.w3.org/2000/svg">
<path d="M180 430C180 391.34 211.34 360 250 360C288.66 360 320 391.34 320 430C320 468.66 288.66 500 250 500C211.34 500 180 468.66 180 430Z" fill="black"/>
<path fill-rule="evenodd" clip-rule="evenodd" d="M250 226.667C281.296 226.667 306.667 201.296 306.667 170C306.667 138.704 281.296 113.333 250 113.333C218.704 113.333 193.333 138.704 193.333 170C193.333 201.296 218.704 226.667 250 226.667ZM250 340C343.889 340 420 263.889 420 170C420 76.1113 343.889 0 250 0C156.111 0 80 76.1113 80 170C80 263.889 156.111 340 250 340Z" fill="black"/>
</svg>
